<mxfile host="app.diagrams.net" agent="Mozilla/5.0 (X11; Linux x86_64) AppleWebKit/537.36 (KHTML, like Gecko) Chrome/134.0.0.0 Safari/537.36" version="26.1.1">
  <diagram name="Page-1" id="TfRPQpRtH9Me-foSn-VB">
    <mxGraphModel dx="879" dy="763" grid="0" gridSize="10" guides="1" tooltips="1" connect="1" arrows="1" fold="1" page="0" pageScale="1" pageWidth="850" pageHeight="1100" math="0" shadow="0">
      <root>
        <mxCell id="0" />
        <mxCell id="1" parent="0" />
        <mxCell id="2" value="Input" style="whiteSpace=wrap;strokeWidth=2;" parent="1" vertex="1">
          <mxGeometry x="259" y="8" width="96" height="54" as="geometry" />
        </mxCell>
        <mxCell id="JccttGPiBqbziTI2sjSH-25" style="edgeStyle=none;curved=1;rounded=0;orthogonalLoop=1;jettySize=auto;html=1;exitX=0.5;exitY=1;exitDx=0;exitDy=0;fontSize=12;startSize=8;endSize=8;" edge="1" parent="1" source="3" target="JccttGPiBqbziTI2sjSH-17">
          <mxGeometry relative="1" as="geometry" />
        </mxCell>
        <mxCell id="3" value="Text Input    " style="whiteSpace=wrap;strokeWidth=2;" parent="1" vertex="1">
          <mxGeometry x="8" y="112" width="166" height="54" as="geometry" />
        </mxCell>
        <mxCell id="JccttGPiBqbziTI2sjSH-26" style="edgeStyle=none;curved=1;rounded=0;orthogonalLoop=1;jettySize=auto;html=1;exitX=0.5;exitY=1;exitDx=0;exitDy=0;fontSize=12;startSize=8;endSize=8;" edge="1" parent="1" source="4" target="JccttGPiBqbziTI2sjSH-18">
          <mxGeometry relative="1" as="geometry" />
        </mxCell>
        <mxCell id="4" value="Audio Input" style="whiteSpace=wrap;strokeWidth=2;" parent="1" vertex="1">
          <mxGeometry x="224" y="112" width="166" height="54" as="geometry" />
        </mxCell>
        <mxCell id="JccttGPiBqbziTI2sjSH-27" style="edgeStyle=none;curved=1;rounded=0;orthogonalLoop=1;jettySize=auto;html=1;exitX=0.5;exitY=1;exitDx=0;exitDy=0;entryX=0.5;entryY=0;entryDx=0;entryDy=0;fontSize=12;startSize=8;endSize=8;" edge="1" parent="1" source="5" target="JccttGPiBqbziTI2sjSH-19">
          <mxGeometry relative="1" as="geometry" />
        </mxCell>
        <mxCell id="5" value="Video Input" style="whiteSpace=wrap;strokeWidth=2;" parent="1" vertex="1">
          <mxGeometry x="440" y="112" width="166" height="54" as="geometry" />
        </mxCell>
        <mxCell id="6" value="" style="curved=1;startArrow=none;endArrow=block;exitX=0;exitY=0.71;entryX=0.5;entryY=0;" parent="1" source="2" target="3" edge="1">
          <mxGeometry relative="1" as="geometry">
            <Array as="points">
              <mxPoint x="91" y="87" />
            </Array>
          </mxGeometry>
        </mxCell>
        <mxCell id="7" value="" style="curved=1;startArrow=none;endArrow=block;exitX=0.5;exitY=1;entryX=0.5;entryY=0;" parent="1" source="2" target="4" edge="1">
          <mxGeometry relative="1" as="geometry">
            <Array as="points" />
          </mxGeometry>
        </mxCell>
        <mxCell id="8" value="" style="curved=1;startArrow=none;endArrow=block;exitX=1;exitY=0.71;entryX=0.5;entryY=0;" parent="1" source="2" target="5" edge="1">
          <mxGeometry relative="1" as="geometry">
            <Array as="points">
              <mxPoint x="523" y="87" />
            </Array>
          </mxGeometry>
        </mxCell>
        <mxCell id="JccttGPiBqbziTI2sjSH-29" style="edgeStyle=none;curved=1;rounded=0;orthogonalLoop=1;jettySize=auto;html=1;entryX=0.5;entryY=0;entryDx=0;entryDy=0;fontSize=12;startSize=8;endSize=8;" edge="1" parent="1" source="JccttGPiBqbziTI2sjSH-17" target="JccttGPiBqbziTI2sjSH-20">
          <mxGeometry relative="1" as="geometry" />
        </mxCell>
        <mxCell id="JccttGPiBqbziTI2sjSH-17" value="Text Model" style="whiteSpace=wrap;strokeWidth=2;" vertex="1" parent="1">
          <mxGeometry x="8" y="222" width="166" height="54" as="geometry" />
        </mxCell>
        <mxCell id="JccttGPiBqbziTI2sjSH-28" style="edgeStyle=none;curved=1;rounded=0;orthogonalLoop=1;jettySize=auto;html=1;exitX=0.5;exitY=1;exitDx=0;exitDy=0;fontSize=12;startSize=8;endSize=8;" edge="1" parent="1" source="JccttGPiBqbziTI2sjSH-18" target="JccttGPiBqbziTI2sjSH-21">
          <mxGeometry relative="1" as="geometry" />
        </mxCell>
        <mxCell id="JccttGPiBqbziTI2sjSH-18" value="Audio Model" style="whiteSpace=wrap;strokeWidth=2;" vertex="1" parent="1">
          <mxGeometry x="224" y="222" width="166" height="54" as="geometry" />
        </mxCell>
        <mxCell id="JccttGPiBqbziTI2sjSH-30" style="edgeStyle=none;curved=1;rounded=0;orthogonalLoop=1;jettySize=auto;html=1;exitX=0.5;exitY=1;exitDx=0;exitDy=0;fontSize=12;startSize=8;endSize=8;" edge="1" parent="1" source="JccttGPiBqbziTI2sjSH-19" target="JccttGPiBqbziTI2sjSH-22">
          <mxGeometry relative="1" as="geometry" />
        </mxCell>
        <mxCell id="JccttGPiBqbziTI2sjSH-19" value="Video Model" style="whiteSpace=wrap;strokeWidth=2;" vertex="1" parent="1">
          <mxGeometry x="440" y="222" width="166" height="54" as="geometry" />
        </mxCell>
        <mxCell id="JccttGPiBqbziTI2sjSH-31" style="edgeStyle=none;curved=1;rounded=0;orthogonalLoop=1;jettySize=auto;html=1;exitX=0.5;exitY=1;exitDx=0;exitDy=0;fontSize=12;startSize=8;endSize=8;" edge="1" parent="1" source="JccttGPiBqbziTI2sjSH-20">
          <mxGeometry relative="1" as="geometry">
            <mxPoint x="260" y="514" as="targetPoint" />
          </mxGeometry>
        </mxCell>
        <mxCell id="JccttGPiBqbziTI2sjSH-20" value="Text Output" style="whiteSpace=wrap;strokeWidth=2;" vertex="1" parent="1">
          <mxGeometry x="11" y="330" width="166" height="54" as="geometry" />
        </mxCell>
        <mxCell id="JccttGPiBqbziTI2sjSH-32" style="edgeStyle=none;curved=1;rounded=0;orthogonalLoop=1;jettySize=auto;html=1;entryX=0.5;entryY=0;entryDx=0;entryDy=0;fontSize=12;startSize=8;endSize=8;" edge="1" parent="1" source="JccttGPiBqbziTI2sjSH-21" target="JccttGPiBqbziTI2sjSH-23">
          <mxGeometry relative="1" as="geometry" />
        </mxCell>
        <mxCell id="JccttGPiBqbziTI2sjSH-21" value="Audio Output" style="whiteSpace=wrap;strokeWidth=2;" vertex="1" parent="1">
          <mxGeometry x="227" y="330" width="166" height="54" as="geometry" />
        </mxCell>
        <mxCell id="JccttGPiBqbziTI2sjSH-33" style="edgeStyle=none;curved=1;rounded=0;orthogonalLoop=1;jettySize=auto;html=1;entryX=1;entryY=0;entryDx=0;entryDy=0;fontSize=12;startSize=8;endSize=8;" edge="1" parent="1" source="JccttGPiBqbziTI2sjSH-22" target="JccttGPiBqbziTI2sjSH-23">
          <mxGeometry relative="1" as="geometry" />
        </mxCell>
        <mxCell id="JccttGPiBqbziTI2sjSH-22" value="Video Output" style="whiteSpace=wrap;strokeWidth=2;" vertex="1" parent="1">
          <mxGeometry x="443" y="330" width="166" height="54" as="geometry" />
        </mxCell>
        <mxCell id="JccttGPiBqbziTI2sjSH-23" value="Concatenate" style="whiteSpace=wrap;strokeWidth=2;" vertex="1" parent="1">
          <mxGeometry x="262" y="511" width="96" height="54" as="geometry" />
        </mxCell>
      </root>
    </mxGraphModel>
  </diagram>
</mxfile>
